<?xml version="1.0" standalone="no"?>
<!DOCTYPE svg PUBLIC "-//W3C//DTD SVG 20010904//EN"
 "http://www.w3.org/TR/2001/REC-SVG-20010904/DTD/svg10.dtd">
<svg version="1.0" xmlns="http://www.w3.org/2000/svg"
 width="900.000000pt" height="520.000000pt" viewBox="0 0 900.000000 520.000000"
 preserveAspectRatio="xMidYMid meet">

<g transform="translate(0.000000,520.000000) scale(0.100000,-0.100000)"
fill="#fff" stroke="none">
<path d="M4867 4184 c-4 -4 -7 -15 -7 -23 0 -11 -51 -42 -152 -93 -84 -42
-254 -130 -378 -195 l-225 -118 -167 -330 c-92 -181 -167 -334 -168 -339 0 -4
38 44 86 109 47 64 138 187 203 273 l119 157 183 97 c101 54 230 123 287 153
56 31 102 54 102 52 0 -3 -142 -93 -315 -202 -276 -173 -319 -203 -339 -239
-53 -93 -226 -417 -226 -421 0 -3 118 -4 263 -3 l262 3 230 406 230 406 3
-368 c2 -360 3 -369 22 -369 19 0 20 9 22 371 l3 370 240 -416 240 -416 250 7
c138 4 251 8 252 9 2 1 -24 68 -57 150 -33 82 -58 150 -57 152 2 1 50 -61 107
-140 57 -78 108 -146 113 -152 5 -5 -69 145 -164 335 l-174 345 -225 118
c-124 65 -293 153 -377 195 -110 55 -153 82 -155 96 -3 21 -20 31 -31 20z
m523 -459 c102 -53 190 -101 195 -106 20 -15 79 -103 64 -94 -8 5 -135 83
-284 175 -148 91 -287 176 -307 189 -72 43 -38 33 55 -17 50 -27 175 -93 277
-147z m-603 68 c-211 -290 -427 -601 -427 -614 0 -9 7 -35 15 -58 8 -22 12
-41 10 -41 -3 0 -25 28 -49 61 -44 60 -45 63 -28 83 89 112 506 616 509 616 3
0 -11 -21 -30 -47z"/>
<path d="M6147 3042 l-29 -30 35 -48 c172 -242 198 -538 71 -800 -84 -171
-177 -264 -307 -308 -63 -21 -179 -38 -190 -27 -5 5 17 23 49 40 73 42 143
113 174 176 21 42 25 65 25 140 0 108 -19 154 -84 200 -40 28 -49 30 -130 30
-79 0 -92 -3 -129 -28 -74 -49 -127 -156 -153 -310 -13 -77 -14 -80 -71 -132
-68 -63 -122 -86 -146 -62 -23 24 -26 110 -8 243 9 65 17 150 18 187 3 62 1
71 -21 88 -13 11 -39 19 -59 19 -47 0 -88 -44 -183 -196 -40 -64 -75 -112 -76
-107 -2 6 5 51 17 101 11 51 20 105 20 121 0 43 -35 81 -73 81 -63 -1 -97 -36
-197 -205 -35 -58 -65 -104 -67 -101 -2 2 3 51 11 109 28 186 23 200 -66 195
-50 -3 -54 -5 -72 -41 -21 -44 -59 -223 -77 -363 -12 -96 -12 -96 -52 -125
-26 -19 -51 -29 -67 -27 -24 3 -25 6 -28 75 -2 44 5 116 18 180 23 121 26 213
8 231 -7 7 -31 12 -55 12 -33 0 -50 7 -78 31 -32 29 -40 31 -81 25 -70 -9
-158 -62 -220 -130 -49 -54 -122 -178 -136 -231 -8 -31 -321 -237 -420 -276
-77 -31 -92 -33 -198 -34 -100 0 -120 3 -157 22 -92 50 -133 138 -133 288 0
283 193 672 391 788 98 58 209 54 270 -9 31 -32 34 -41 37 -108 5 -95 -20
-156 -92 -224 -54 -51 -108 -75 -198 -87 -65 -8 -108 -45 -108 -91 0 -45 32
-65 113 -71 242 -19 502 289 456 541 -35 193 -201 296 -406 252 -274 -57 -535
-356 -648 -741 -33 -109 -44 -281 -26 -377 29 -152 132 -287 268 -351 65 -31
73 -32 188 -32 228 1 393 66 577 227 l67 59 21 -40 c61 -120 205 -134 343 -33
34 25 63 40 65 34 2 -6 16 -29 32 -51 48 -65 129 -74 213 -22 l34 21 23 -25
c26 -28 84 -34 113 -12 9 6 62 105 117 220 55 114 104 207 108 207 5 0 1 -53
-9 -117 -37 -234 -20 -323 60 -323 67 0 82 21 166 238 43 108 80 200 84 204 4
4 5 -53 3 -127 -5 -166 3 -234 31 -277 20 -29 29 -33 73 -36 33 -2 70 4 103
17 29 11 51 16 49 13 -2 -4 -20 -43 -42 -87 -73 -151 -89 -203 -89 -290 1
-183 70 -276 183 -245 124 34 223 244 237 505 7 126 12 134 84 135 65 0 186
33 260 71 135 67 285 219 348 352 48 103 64 197 59 360 -4 128 -8 152 -37 237
-34 101 -94 213 -144 274 l-32 37 -28 -29z m-343 -778 c47 -47 25 -161 -51
-262 -26 -35 -98 -92 -116 -92 -15 0 -1 184 19 249 28 94 105 149 148 105z
m-1664 -7 c0 -33 -61 -292 -78 -329 -20 -44 -53 -80 -85 -91 -12 -5 -27 2 -44
19 -24 24 -25 30 -21 98 8 116 79 246 163 298 35 21 65 24 65 5z m1320 -753
c-5 -102 -14 -191 -21 -207 -17 -38 -46 -35 -66 8 -15 31 -15 43 -4 97 21 104
86 296 96 286 3 -2 0 -85 -5 -184z"/>
<path d="M3880 2755 c0 -85 3 -105 15 -105 11 0 15 17 17 72 l3 71 59 -71 c32
-40 65 -72 72 -72 11 0 14 22 14 105 0 87 -3 105 -15 105 -12 0 -15 -14 -15
-70 0 -38 -3 -70 -8 -70 -4 0 -31 32 -61 70 -29 39 -59 70 -67 70 -11 0 -14
-22 -14 -105z"/>
<path d="M4143 2755 c-36 -92 -39 -105 -23 -105 10 0 23 13 30 30 11 26 18 30
50 30 32 0 39 -4 50 -30 7 -17 20 -30 30 -30 16 0 13 13 -23 105 -27 68 -47
105 -57 105 -10 0 -30 -37 -57 -105z m71 31 c3 -13 9 -31 12 -40 5 -13 -1 -16
-25 -16 -35 0 -36 1 -19 47 14 39 24 42 32 9z"/>
<path d="M4300 2845 c0 -10 11 -15 35 -15 l35 0 0 -90 c0 -73 3 -90 15 -90 12
0 15 17 15 90 l0 90 35 0 c24 0 35 5 35 15 0 12 -16 15 -85 15 -69 0 -85 -3
-85 -15z"/>
<path d="M4520 2780 c0 -73 3 -83 25 -105 32 -33 84 -33 121 -1 26 22 28 29
28 102 1 67 -2 79 -16 82 -16 3 -18 -5 -18 -72 0 -81 -13 -106 -54 -106 -41 0
-56 29 -56 108 0 57 -3 72 -15 72 -12 0 -15 -16 -15 -80z"/>
<path d="M4760 2755 c0 -87 3 -105 15 -105 10 0 15 11 15 35 0 31 3 35 25 35
19 0 31 -10 46 -35 13 -21 29 -35 41 -35 19 0 19 1 -2 35 -20 32 -20 36 -6 57
22 31 20 74 -4 98 -15 15 -33 20 -75 20 l-55 0 0 -105z m114 53 c17 -27 -5
-52 -48 -56 l-36 -3 0 41 0 41 36 -3 c22 -2 42 -10 48 -20z"/>
<path d="M4970 2755 l0 -105 70 0 c56 0 70 3 70 15 0 12 -13 15 -55 15 -54 0
-55 0 -55 29 0 28 2 30 47 33 66 4 70 28 4 28 -50 0 -51 1 -51 30 0 30 1 30
55 30 42 0 55 3 55 15 0 12 -14 15 -70 15 l-70 0 0 -105z"/>
<path d="M5260 2755 l0 -105 70 0 c56 0 70 3 70 15 0 12 -13 15 -55 15 l-55 0
0 90 c0 73 -3 90 -15 90 -12 0 -15 -18 -15 -105z"/>
<path d="M5449 2856 c-2 -2 -3 -50 -1 -105 3 -80 6 -101 18 -101 11 0 14 20
14 105 0 81 -3 105 -13 105 -8 0 -16 -2 -18 -4z"/>
<path d="M5540 2755 c0 -98 1 -105 20 -105 17 0 20 7 20 45 l0 45 40 0 c29 0
40 4 40 15 0 11 -11 15 -40 15 -38 0 -40 2 -40 30 0 29 1 30 50 30 38 0 50 4
50 15 0 12 -14 15 -70 15 l-70 0 0 -105z"/>
<path d="M5730 2755 l0 -105 70 0 c56 0 70 3 70 15 0 12 -13 15 -55 15 -54 0
-55 0 -55 30 0 29 1 30 50 30 38 0 50 4 50 15 0 11 -12 15 -51 15 -49 0 -50 1
-47 28 3 25 7 27 56 30 37 2 52 7 52 18 0 11 -16 14 -70 14 l-70 0 0 -105z"/>
</g>
</svg>
